<svg width="63" height="63" viewBox="0 0 63 63" fill="none" xmlns="http://www.w3.org/2000/svg">
<path d="M0.815796 31.3105C0.815796 17.1903 0.815796 10.1302 5.01327 5.59402C5.29026 5.29468 5.57874 5.0062 5.87808 4.72922C10.4143 0.531738 17.4744 0.531738 31.5946 0.531738C45.7148 0.531738 52.7749 0.531738 57.3111 4.72922C57.6104 5.0062 57.8989 5.29468 58.1759 5.59402C62.3733 10.1302 62.3733 17.1903 62.3733 31.3105C62.3733 45.4307 62.3733 52.4908 58.1759 57.027C57.8989 57.3263 57.6104 57.6148 57.3111 57.8918C52.7749 62.0893 45.7148 62.0893 31.5946 62.0893C17.4744 62.0893 10.4143 62.0893 5.87808 57.8918C5.57874 57.6148 5.29026 57.3263 5.01327 57.027C0.815796 52.4908 0.815796 45.4307 0.815796 31.3105Z" fill="#E5EBF4"/>
<path d="M18.5629 31.9491C18.2708 32.2427 18.272 32.7176 18.5656 33.0097C18.8593 33.3019 19.3342 33.3006 19.6263 33.007L18.5629 31.9491ZM30.882 18.916L31.0835 18.1936V18.1936L30.882 18.916ZM33.8654 19.7482L34.0669 19.0258V19.0258L33.8654 19.7482ZM35.153 20.6031L34.5704 21.0754L34.5704 21.0754L35.153 20.6031ZM42.3422 31.7117L41.6596 32.0224L41.6596 32.0224L42.3422 31.7117ZM27.3983 20.7452L26.8467 20.2371L27.3983 20.7452ZM30.1956 24.7335L30.0734 23.9935L30.1956 24.7335ZM33.7632 26.3817L34.3581 25.9249L34.3581 25.9249L33.7632 26.3817ZM34.9854 30.8529L34.24 30.9354V30.9354L34.9854 30.8529ZM35.9241 33.2715L35.5031 33.8921C35.8183 34.106 36.2437 34.0496 36.4923 33.7611C36.7409 33.4725 36.7338 33.0434 36.4757 32.7633L35.9241 33.2715ZM26.2735 34.2119C26.0168 34.537 26.0722 35.0086 26.3973 35.2653C26.7224 35.522 27.194 35.4666 27.4507 35.1415L26.2735 34.2119ZM26.1036 23.0185L25.3647 23.1474L26.1036 23.0185ZM43.8173 38.3154L44.5139 38.5933L43.8173 38.3154ZM38.515 41.6177L38.7496 42.33L38.515 41.6177ZM32.1709 24.5907L32.4564 23.8972L32.4564 23.8972L32.1709 24.5907ZM29.3502 41.8096L29.8887 42.3317L29.8887 42.3317L29.3502 41.8096ZM19.6462 41.1946C19.3656 40.8899 18.8911 40.8705 18.5864 41.1511C18.2818 41.4318 18.2623 41.9062 18.543 42.2109L19.6462 41.1946ZM29.5691 41.5037L29.8422 40.8052C29.4998 40.6713 29.111 40.8053 28.9237 41.1216L29.5691 41.5037ZM29.5262 41.5762L28.8808 41.1941L28.8808 41.1941L29.5262 41.5762ZM30.0702 32.3461L30.2994 33.0602L30.0702 32.3461ZM30.6804 19.6384L33.6638 20.4706L34.0669 19.0258L31.0835 18.1936L30.6804 19.6384ZM34.5704 21.0754C37.8087 25.0702 39.8903 28.135 41.6596 32.0224L43.0249 31.401C41.1838 27.3559 39.0186 24.1807 35.7357 20.1309L34.5704 21.0754ZM34.24 30.9354C34.3454 31.8879 34.6517 32.9973 35.3725 33.7797L36.4757 32.7633C36.0698 32.3227 35.8214 31.588 35.7308 30.7703L34.24 30.9354ZM33.1683 26.8384C33.4129 27.157 33.5855 27.382 33.7072 27.551C33.8396 27.7349 33.8661 27.7922 33.865 27.7892L35.259 27.2353C35.1836 27.0455 35.0522 26.852 34.9246 26.6747C34.7861 26.4824 34.5964 26.2354 34.3581 25.9249L33.1683 26.8384ZM35.7308 30.7704C35.6147 29.7213 35.5268 28.9273 35.4586 28.3727C35.4246 28.0959 35.3945 27.8709 35.3675 27.7C35.3456 27.5619 35.314 27.3739 35.259 27.2353L33.865 27.7892C33.847 27.744 33.8578 27.7575 33.8859 27.9348C33.9088 28.0792 33.9364 28.2835 33.9698 28.5557C34.0366 29.0991 34.1233 29.882 34.24 30.9354L35.7308 30.7704ZM26.8467 20.2371C26.3917 20.731 25.9801 21.1735 25.7144 21.5923C25.4216 22.0538 25.261 22.5525 25.3647 23.1474L26.8424 22.8897C26.8189 22.7548 26.8316 22.6314 26.981 22.3959C27.1575 22.1177 27.4569 21.7885 27.9499 21.2534L26.8467 20.2371ZM41.6596 32.0224C42.3999 33.6489 42.9153 34.7869 43.1711 35.7391C43.4157 36.6497 43.4042 37.327 43.1207 38.0374L44.5139 38.5933C44.9454 37.5119 44.9264 36.4913 44.6197 35.35C44.3243 34.2503 43.7446 32.9824 43.0249 31.401L41.6596 32.0224ZM38.7496 42.33C40.2517 41.8355 41.479 41.4347 42.4099 40.9161C43.3894 40.3704 44.0827 39.6741 44.5139 38.5933L43.1207 38.0374C42.837 38.7486 42.4082 39.1999 41.6799 39.6057C40.9029 40.0385 39.8366 40.3929 38.2805 40.9053L38.7496 42.33ZM30.3177 25.4735C30.8818 25.3804 31.2647 25.3176 31.5475 25.2914C31.8485 25.2636 31.9071 25.2932 31.8853 25.2842L32.4564 23.8972C32.1168 23.7574 31.7402 23.7672 31.4093 23.7978C31.0602 23.8301 30.6143 23.9042 30.0734 23.9935L30.3177 25.4735ZM28.8117 41.2875C27.67 42.4652 25.9566 43.0765 24.2051 43.0602C22.4537 43.044 20.7579 42.4012 19.6462 41.1946L18.543 42.2109C19.9872 43.7786 22.1088 44.5408 24.1911 44.5602C26.2733 44.5795 28.4097 43.8571 29.8887 42.3317L28.8117 41.2875ZM38.2805 40.9053C35.3314 41.8763 32.8155 41.9677 29.8422 40.8052L29.296 42.2022C32.6449 43.5115 35.5248 43.3918 38.7496 42.33L38.2805 40.9053ZM30.1715 41.9583L30.2144 41.8858L28.9237 41.1216L28.8808 41.1941L30.1715 41.9583ZM29.8887 42.3317C30.004 42.2127 30.0968 42.0845 30.1715 41.9582L28.8808 41.1941C28.8559 41.2361 28.8323 41.2663 28.8117 41.2876L29.8887 42.3317ZM36.3452 32.6508C35.0545 31.7752 32.4823 30.7841 29.841 31.632L30.2994 33.0602C32.3556 32.4002 34.4461 33.1751 35.5031 33.8921L36.3452 32.6508ZM29.841 31.632C28.5859 32.0348 27.3545 32.8429 26.2735 34.2119L27.4507 35.1415C28.3578 33.9927 29.3443 33.3668 30.2994 33.0602L29.841 31.632ZM30.5848 31.8005C29.0037 30.3092 26.7401 29.6111 24.5421 29.6346C22.3441 29.6582 20.0993 30.4048 18.5629 31.9491L19.6263 33.007C20.8232 31.8039 22.6564 31.1549 24.5581 31.1345C26.4597 31.1142 28.3172 31.7237 29.5556 32.8917L30.5848 31.8005ZM31.8853 25.2842C32.0315 25.3444 32.2171 25.5071 32.4589 25.8272C32.5732 25.9786 32.6831 26.1412 32.8015 26.3168C32.9148 26.4848 33.0405 26.6719 33.1683 26.8384L34.3581 25.9249C34.264 25.8024 34.1653 25.6563 34.0453 25.4784C33.9305 25.3081 33.7984 25.1119 33.6558 24.9231C33.3835 24.5626 32.9948 24.1189 32.4564 23.8972L31.8853 25.2842ZM33.6638 20.4706C34.0855 20.5883 34.1455 20.615 34.1872 20.6427C34.2328 20.673 34.286 20.7246 34.5704 21.0754L35.7357 20.1309C35.5073 19.8492 35.2974 19.5795 35.0175 19.3935C34.7339 19.205 34.4064 19.1205 34.0669 19.0258L33.6638 20.4706ZM31.0835 18.1936C30.0065 17.8932 29.1615 18.129 28.4613 18.6244C27.8429 19.062 27.298 19.7473 26.8467 20.2371L27.9499 21.2534C28.5255 20.6286 28.8814 20.1647 29.3277 19.8489C29.6921 19.5911 30.0754 19.4696 30.6804 19.6384L31.0835 18.1936ZM25.3647 23.1474C25.5758 24.3577 26.6641 24.9673 27.5701 25.2491C28.5154 25.5431 29.5888 25.5938 30.3177 25.4735L30.0734 23.9935C29.5809 24.0748 28.7435 24.0432 28.0156 23.8168C27.2486 23.5782 26.9017 23.2295 26.8424 22.8897L25.3647 23.1474Z" fill="#0000FF"/>
</svg>
