<svg width="49" height="49" viewBox="0 0 49 49" fill="none" xmlns="http://www.w3.org/2000/svg">
<path fill-rule="evenodd" clip-rule="evenodd" d="M0.790955 24.7436C0.790955 11.4664 11.5542 0.703125 24.8314 0.703125C38.1086 0.703125 48.8719 11.4664 48.8719 24.7436C48.8719 38.0208 38.1086 48.7841 24.8314 48.7841C11.5542 48.7841 0.790955 38.0208 0.790955 24.7436Z" fill="#E5EAF4"/>
<path fill-rule="evenodd" clip-rule="evenodd" d="M24.8326 11.9224C21.3504 11.9224 20.9134 11.9376 19.5458 11.9998C18.1808 12.0623 17.2491 12.2784 16.4339 12.5955C15.5906 12.923 14.8752 13.3611 14.1625 14.074C13.4493 14.7867 13.0113 15.502 12.6827 16.3451C12.3648 17.1606 12.1485 18.0925 12.087 19.457C12.0259 20.8246 12.0098 21.2619 12.0098 24.7441C12.0098 28.2262 12.0253 28.6619 12.0873 30.0296C12.1501 31.3945 12.3662 32.3263 12.683 33.1415C13.0107 33.9848 13.4488 34.7001 14.1617 35.4128C14.8741 36.126 15.5895 36.5652 16.4323 36.8927C17.248 37.2097 18.18 37.4258 19.5447 37.4883C20.9124 37.5506 21.3491 37.5658 24.831 37.5658C28.3134 37.5658 28.7491 37.5506 30.1168 37.4883C31.4817 37.4258 32.4145 37.2097 33.2303 36.8927C34.0733 36.5652 34.7876 36.126 35.5 35.4128C36.2132 34.7001 36.6513 33.9848 36.9799 33.1418C37.2951 32.3263 37.5114 31.3943 37.5755 30.0298C37.637 28.6622 37.653 28.2262 37.653 24.7441C37.653 21.2619 37.637 20.8249 37.5755 19.4573C37.5114 18.0923 37.2951 17.1606 36.9799 16.3453C36.6513 15.502 36.2132 14.7867 35.5 14.074C34.7868 13.3608 34.0736 12.9227 33.2295 12.5955C32.4121 12.2784 31.4799 12.0623 30.1149 11.9998C28.7472 11.9376 28.3118 11.9224 24.8286 11.9224H24.8326ZM23.6823 14.2329C24.0237 14.2324 24.4046 14.2329 24.8326 14.2329C28.256 14.2329 28.6617 14.2452 30.0136 14.3066C31.2637 14.3638 31.9422 14.5727 32.3942 14.7482C32.9925 14.9806 33.4191 15.2584 33.8676 15.7071C34.3164 16.1559 34.5942 16.5833 34.8271 17.1816C35.0026 17.6331 35.2117 18.3116 35.2686 19.5617C35.3301 20.9133 35.3434 21.3193 35.3434 24.7411C35.3434 28.1629 35.3301 28.5689 35.2686 29.9205C35.2115 31.1707 35.0026 31.8491 34.8271 32.3006C34.5947 32.8989 34.3164 33.325 33.8676 33.7735C33.4188 34.2222 32.9928 34.5 32.3942 34.7324C31.9427 34.9087 31.2637 35.1171 30.0136 35.1742C28.662 35.2357 28.256 35.249 24.8326 35.249C21.4089 35.249 21.0031 35.2357 19.6515 35.1742C18.4014 35.1166 17.7229 34.9077 17.2707 34.7322C16.6723 34.4998 16.2449 34.222 15.7962 33.7732C15.3474 33.3244 15.0696 32.8981 14.8367 32.2995C14.6612 31.8481 14.452 31.1696 14.3951 29.9195C14.3337 28.5679 14.3214 28.1618 14.3214 24.7379C14.3214 21.314 14.3337 20.9101 14.3951 19.5585C14.4523 18.3083 14.6612 17.6299 14.8367 17.1779C15.0691 16.5795 15.3474 16.1522 15.7962 15.7034C16.2449 15.2546 16.6723 14.9768 17.2707 14.7439C17.7226 14.5676 18.4014 14.3593 19.6515 14.3018C20.8343 14.2484 21.2927 14.2324 23.6823 14.2297V14.2329ZM31.6767 16.3619C30.8273 16.3619 30.1381 17.0502 30.1381 17.8999C30.1381 18.7494 30.8273 19.4385 31.6767 19.4385C32.5261 19.4385 33.2153 18.7494 33.2153 17.8999C33.2153 17.0505 32.5261 16.3619 31.6767 16.3619ZM24.8326 18.1596C21.1963 18.1596 18.2481 21.1078 18.2481 24.744C18.2481 28.3803 21.1963 31.3272 24.8326 31.3272C28.4689 31.3272 31.4161 28.3803 31.4161 24.744C31.4161 21.1078 28.4689 18.1596 24.8326 18.1596ZM24.8326 20.4701C27.1929 20.4701 29.1065 22.3835 29.1065 24.744C29.1065 27.1043 27.1929 29.018 24.8326 29.018C22.4721 29.018 20.5587 27.1043 20.5587 24.744C20.5587 22.3835 22.4721 20.4701 24.8326 20.4701Z" fill="#1C1C1C"/>
</svg>
