<svg width="62" height="62" viewBox="0 0 62 62" fill="none" xmlns="http://www.w3.org/2000/svg">
<path d="M0.127197 31.1213C0.127197 17.0011 0.127197 9.94102 4.32468 5.40481C4.60166 5.10547 4.89014 4.81699 5.18948 4.54001C9.72568 0.342529 16.7858 0.342529 30.906 0.342529C45.0262 0.342529 52.0863 0.342529 56.6225 4.54001C56.9218 4.81699 57.2103 5.10547 57.4873 5.40481C61.6847 9.94102 61.6847 17.0011 61.6847 31.1213C61.6847 45.2415 61.6847 52.3016 57.4873 56.8378C57.2103 57.1371 56.9218 57.4256 56.6225 57.7026C52.0863 61.9001 45.0262 61.9001 30.906 61.9001C16.7858 61.9001 9.72568 61.9001 5.18948 57.7026C4.89014 57.4256 4.60166 57.1371 4.32468 56.8378C0.127197 52.3016 0.127197 45.2415 0.127197 31.1213Z" fill="#E5EBF4"/>
<path d="M18.406 31.1213C18.406 29.7406 19.5253 28.6213 20.906 28.6213C22.9771 28.6213 24.656 30.3003 24.656 32.3713V37.3713C24.656 39.4424 22.9771 41.1213 20.906 41.1213C19.5253 41.1213 18.406 40.002 18.406 38.6213V31.1213Z" stroke="#0000FF" stroke-width="1.5" stroke-linecap="round" stroke-linejoin="round"/>
<path d="M35.2544 25.2542L34.9216 26.3293C34.6488 27.2102 34.5124 27.6507 34.6173 27.9986C34.7021 28.28 34.8884 28.5226 35.1423 28.6822C35.456 28.8795 35.9306 28.8795 36.8799 28.8795H37.3849C40.5975 28.8795 42.2038 28.8795 42.9624 29.8305C43.0492 29.9391 43.1263 30.0547 43.193 30.1759C43.7766 31.2365 43.1131 32.6653 41.786 35.5227C40.5681 38.1449 39.9592 39.4561 38.8285 40.2278C38.7191 40.3025 38.6066 40.373 38.4914 40.439C37.3011 41.1213 35.8262 41.1213 32.8765 41.1213H32.2368C28.6632 41.1213 26.8764 41.1213 25.7662 40.0457C24.656 38.97 24.656 37.2388 24.656 33.7762V32.5593C24.656 30.7396 24.656 29.8298 24.9789 28.9971C25.3019 28.1643 25.9202 27.4796 27.1569 26.1102L32.2712 20.447C32.3994 20.305 32.4636 20.234 32.5201 20.1848C33.0479 19.7254 33.8625 19.7771 34.324 20.2993C34.3735 20.3552 34.4275 20.4337 34.5355 20.5908C34.7045 20.8364 34.789 20.9592 34.8627 21.0809C35.522 22.1703 35.7215 23.4643 35.4195 24.6928C35.3858 24.83 35.342 24.9715 35.2544 25.2542Z" stroke="#0000FF" stroke-width="1.5" stroke-linecap="round" stroke-linejoin="round"/>
</svg>
