<svg width="66" height="65" viewBox="0 0 66 65" fill="none" xmlns="http://www.w3.org/2000/svg">
<path d="M0.815796 31.9001C0.815796 17.0237 0.815796 9.58552 5.43729 4.96403C10.0588 0.342529 17.497 0.342529 32.3733 0.342529H33.8158C48.6922 0.342529 56.1304 0.342529 60.7519 4.96403C65.3734 9.58552 65.3734 17.0237 65.3734 31.9001V33.3426C65.3734 48.2189 65.3734 55.6571 60.7519 60.2786C56.1304 64.9001 48.6922 64.9001 33.8158 64.9001H32.3733C17.497 64.9001 10.0588 64.9001 5.43729 60.2786C0.815796 55.6571 0.815796 48.2189 0.815796 33.3425V31.9001Z" fill="#E5EBF4"/>
<path d="M41.3446 28.4963L39.3121 41.44C38.9697 43.6203 38.7986 44.7104 38.0259 45.3598C36.376 46.7467 29.7217 46.6698 28.1633 45.3598C27.3907 44.7104 27.2195 43.6203 26.8771 41.44L24.8446 28.4963" stroke="#0000FF" stroke-width="1.5" stroke-linecap="round"/>
<path d="M24.8446 28.4963L25.552 26.728C26.7856 23.6437 29.7728 21.6213 33.0946 21.6213C36.4164 21.6213 39.4036 23.6437 40.6373 26.728L41.3446 28.4963" stroke="#0000FF" stroke-width="1.5"/>
<path d="M23.4696 28.4963H42.7196" stroke="#0000FF" stroke-width="1.5" stroke-linecap="round"/>
<path d="M34.4696 28.4963L38.5946 18.8713" stroke="#0000FF" stroke-width="1.5" stroke-linecap="round"/>
<path d="M30.3569 38.8088H30.3446M35.8446 40.8713H35.8323M34.4851 35.3713H34.4728" stroke="#0000FF" stroke-width="2" stroke-linecap="round" stroke-linejoin="round"/>
</svg>
