<svg width="37" height="37" viewBox="0 0 37 37" fill="none" xmlns="http://www.w3.org/2000/svg">
<path opacity="0.2" d="M13.8207 18.0599C14.9803 20.4546 16.9167 22.386 19.3143 23.5394C19.4912 23.6232 19.6868 23.6594 19.8819 23.6446C20.0771 23.6298 20.265 23.5644 20.4271 23.4549L23.9487 21.1025C24.1043 20.997 24.2841 20.9326 24.4713 20.9154C24.6585 20.8981 24.847 20.9286 25.0192 21.0039L31.6116 23.8352C31.8369 23.929 32.0251 24.0942 32.1473 24.3055C32.2695 24.5168 32.3188 24.7623 32.2877 25.0044C32.0788 26.6352 31.2828 28.134 30.0487 29.2204C28.8145 30.3067 27.2268 30.9061 25.5827 30.9065C20.5019 30.9065 15.6292 28.8882 12.0365 25.2955C8.44379 21.7028 6.42545 16.8301 6.42545 11.7493C6.42582 10.1051 7.02526 8.51744 8.1116 7.28331C9.19795 6.04918 10.6968 5.25317 12.3276 5.04423C12.5696 5.01313 12.8152 5.06247 13.0264 5.18465C13.2377 5.30682 13.4029 5.49506 13.4967 5.72036L16.3281 12.3268C16.4017 12.4963 16.4325 12.6814 16.4177 12.8656C16.403 13.0498 16.3432 13.2276 16.2435 13.3833L13.8911 16.9612C13.7864 17.123 13.7249 17.309 13.7126 17.5013C13.7003 17.6937 13.7375 17.886 13.8207 18.0599Z" fill="#0000FF"/>
<path d="M13.8207 18.0599C14.9803 20.4546 16.9167 22.386 19.3143 23.5394C19.4912 23.6232 19.6868 23.6594 19.8819 23.6446C20.0771 23.6298 20.265 23.5644 20.4271 23.4549L23.9487 21.1025C24.1043 20.997 24.2841 20.9326 24.4713 20.9154C24.6585 20.8981 24.847 20.9286 25.0192 21.0039L31.6116 23.8352C31.8369 23.929 32.0251 24.0942 32.1473 24.3055C32.2695 24.5168 32.3188 24.7623 32.2877 25.0044C32.0788 26.6352 31.2828 28.134 30.0487 29.2204C28.8145 30.3067 27.2268 30.9061 25.5827 30.9065C20.5019 30.9065 15.6292 28.8882 12.0365 25.2955C8.44379 21.7028 6.42545 16.8301 6.42545 11.7493C6.42582 10.1051 7.02526 8.51744 8.1116 7.28331C9.19795 6.04918 10.6968 5.25317 12.3276 5.04423C12.5696 5.01313 12.8152 5.06247 13.0264 5.18465C13.2377 5.30682 13.4029 5.49506 13.4967 5.72036L16.3281 12.3268C16.4017 12.4963 16.4325 12.6814 16.4177 12.8656C16.403 13.0498 16.3432 13.2276 16.2435 13.3833L13.8911 16.9612C13.7864 17.123 13.7249 17.309 13.7126 17.5013C13.7003 17.6937 13.7375 17.886 13.8207 18.0599Z" stroke="#0000FF" stroke-width="2.25379" stroke-linecap="round" stroke-linejoin="round"/>
<path d="M23.2444 6.11475C25.1559 6.62773 26.8987 7.63444 28.2981 9.03385C29.6975 10.4333 30.7042 12.1761 31.2172 14.0875" stroke="#0000FF" stroke-width="2.25379" stroke-linecap="round" stroke-linejoin="round"/>
<path d="M22.0752 10.4673C23.2248 10.7726 24.2732 11.3764 25.1143 12.2175C25.9554 13.0585 26.5592 14.107 26.8645 15.2566" stroke="#0000FF" stroke-width="2.25379" stroke-linecap="round" stroke-linejoin="round"/>
</svg>
