<svg width="65" height="66" viewBox="0 0 65 66" fill="none" xmlns="http://www.w3.org/2000/svg">
<path d="M0.127197 32.0895C0.127197 17.2132 0.127197 9.77498 4.74869 5.15348C9.37019 0.531982 16.8084 0.531982 31.6847 0.531982H33.2626C48.139 0.531982 55.5772 0.531982 60.1987 5.15348C64.8202 9.77498 64.8202 17.2132 64.8202 32.0895V33.6674C64.8202 48.5438 64.8202 55.982 60.1987 60.6035C55.5772 65.225 48.139 65.225 33.2626 65.225H31.6847C16.8084 65.225 9.37019 65.225 4.74869 60.6035C0.127197 55.982 0.127197 48.5438 0.127197 33.6674V32.0895Z" fill="#E5EBF4"/>
<path opacity="0.2" d="M42.8285 21.4883H38.6866C38.1147 21.4883 37.6511 21.9519 37.6511 22.5238V26.6657C37.6511 27.2376 38.1147 27.7012 38.6866 27.7012H42.8285C43.4004 27.7012 43.864 27.2376 43.864 26.6657V22.5238C43.864 21.9519 43.4004 21.4883 42.8285 21.4883Z" fill="#0000FF"/>
<path opacity="0.2" d="M22.1189 21.5468H26.2608C26.8003 21.5468 27.2377 21.9842 27.2377 22.5238V26.6657C27.2377 27.2052 26.8003 27.6426 26.2608 27.6426H22.1189C21.5793 27.6426 21.1419 27.2052 21.1419 26.6657V22.5238C21.1419 21.9842 21.5793 21.5468 22.1189 21.5468Z" fill="#0000FF" stroke="#0000FF" stroke-width="0.117108"/>
<path opacity="0.2" d="M38.6866 38.1145H42.8285C43.3681 38.1145 43.8055 38.5518 43.8055 39.0914V43.2333C43.8055 43.7729 43.3681 44.2102 42.8285 44.2102H38.6866C38.1471 44.2102 37.7097 43.7729 37.7097 43.2333V39.0914C37.7097 38.5518 38.1471 38.1145 38.6866 38.1145Z" fill="#0000FF" stroke="#0000FF" stroke-width="0.117108"/>
<path opacity="0.2" d="M22.1189 38.1145H26.2608C26.8003 38.1145 27.2377 38.5518 27.2377 39.0914V43.2333C27.2377 43.7729 26.8003 44.2102 26.2608 44.2102H22.1189C21.5793 44.2102 21.1419 43.7729 21.1419 43.2333V39.0914C21.1419 38.5518 21.5793 38.1145 22.1189 38.1145Z" fill="#0000FF" stroke="#0000FF" stroke-width="0.117108"/>
<path d="M42.8285 21.4883H38.6866C38.1147 21.4883 37.6511 21.9519 37.6511 22.5238V26.6657C37.6511 27.2376 38.1147 27.7012 38.6866 27.7012H42.8285C43.4004 27.7012 43.864 27.2376 43.864 26.6657V22.5238C43.864 21.9519 43.4004 21.4883 42.8285 21.4883Z" stroke="#0000FF" stroke-linecap="round" stroke-linejoin="round"/>
<path d="M26.2608 21.4883H22.1189C21.547 21.4883 21.0834 21.9519 21.0834 22.5238V26.6657C21.0834 27.2376 21.547 27.7012 22.1189 27.7012H26.2608C26.8327 27.7012 27.2963 27.2376 27.2963 26.6657V22.5238C27.2963 21.9519 26.8327 21.4883 26.2608 21.4883Z" stroke="#0000FF" stroke-linecap="round" stroke-linejoin="round"/>
<path d="M42.8285 38.0559H38.6866C38.1147 38.0559 37.6511 38.5195 37.6511 39.0914V43.2333C37.6511 43.8052 38.1147 44.2688 38.6866 44.2688H42.8285C43.4004 44.2688 43.864 43.8052 43.864 43.2333V39.0914C43.864 38.5195 43.4004 38.0559 42.8285 38.0559Z" stroke="#0000FF" stroke-linecap="round" stroke-linejoin="round"/>
<path d="M26.2608 38.0559H22.1189C21.547 38.0559 21.0834 38.5195 21.0834 39.0914V43.2333C21.0834 43.8052 21.547 44.2688 22.1189 44.2688H26.2608C26.8327 44.2688 27.2963 43.8052 27.2963 43.2333V39.0914C27.2963 38.5195 26.8327 38.0559 26.2608 38.0559Z" stroke="#0000FF" stroke-linecap="round" stroke-linejoin="round"/>
<path d="M24.1898 38.056V27.7012" stroke="#0000FF" stroke-linecap="round" stroke-linejoin="round"/>
<path d="M37.6511 41.1624H27.2963" stroke="#0000FF" stroke-linecap="round" stroke-linejoin="round"/>
<path d="M40.7576 27.7012V38.056" stroke="#0000FF" stroke-linecap="round" stroke-linejoin="round"/>
<path d="M27.2963 24.5945H37.6511" stroke="#0000FF" stroke-linecap="round" stroke-linejoin="round"/>
</svg>
