<svg width="40" height="39" viewBox="0 0 40 39" fill="none" xmlns="http://www.w3.org/2000/svg">
<path d="M21.0546 30.9831L29.7796 36.5228C30.9049 37.2326 32.2898 36.1766 31.9609 34.8782L29.4334 24.9413C29.3651 24.6659 29.3759 24.3768 29.4647 24.1072C29.5536 23.8377 29.7167 23.5988 29.9354 23.4179L37.7603 16.8914C38.7817 16.0432 38.2623 14.3293 36.9293 14.2428L26.7155 13.5849C26.4368 13.5687 26.1689 13.4717 25.9444 13.3056C25.72 13.1396 25.5488 12.9118 25.4517 12.6501L21.6432 3.05946C21.5424 2.78231 21.3587 2.54289 21.1171 2.3737C20.8756 2.20452 20.5878 2.11377 20.2929 2.11377C19.9979 2.11377 19.7102 2.20452 19.4686 2.3737C19.227 2.54289 19.0434 2.78231 18.9426 3.05946L15.134 12.6501C15.0369 12.9118 14.8657 13.1396 14.6413 13.3056C14.4169 13.4717 14.1489 13.5687 13.8702 13.5849L3.65639 14.2428C2.3234 14.3293 1.80405 16.0432 2.82544 16.8914L10.6503 23.4179C10.869 23.5988 11.0322 23.8377 11.121 24.1072C11.2098 24.3768 11.2207 24.6659 11.1523 24.9413L8.81526 34.1511C8.41709 35.7092 10.079 36.9729 11.412 36.1246L19.5311 30.9831C19.7588 30.8383 20.023 30.7614 20.2929 30.7614C20.5627 30.7614 20.8269 30.8383 21.0546 30.9831V30.9831Z" fill="#F8D57E" stroke="#F8D57E" stroke-width="3.0009" stroke-linecap="round" stroke-linejoin="round"/>
</svg>
