<svg width="40" height="39" viewBox="0 0 40 39" fill="none" xmlns="http://www.w3.org/2000/svg">
<path d="M20.288 30.9831L29.0131 36.5228C30.1383 37.2326 31.5233 36.1766 31.1943 34.8782L28.6668 24.9413C28.5985 24.6659 28.6094 24.3768 28.6982 24.1072C28.787 23.8377 28.9502 23.5988 29.1689 23.4179L36.9937 16.8914C38.0151 16.0432 37.4958 14.3293 36.1628 14.2428L25.9489 13.5849C25.6702 13.5687 25.4023 13.4717 25.1779 13.3056C24.9534 13.1396 24.7822 12.9118 24.6852 12.6501L20.8766 3.05946C20.7758 2.78231 20.5921 2.54289 20.3506 2.3737C20.109 2.20452 19.8212 2.11377 19.5263 2.11377C19.2314 2.11377 18.9436 2.20452 18.702 2.3737C18.4605 2.54289 18.2768 2.78231 18.176 3.05946L14.3674 12.6501C14.2704 12.9118 14.0992 13.1396 13.8747 13.3056C13.6503 13.4717 13.3824 13.5687 13.1037 13.5849L2.88984 14.2428C1.55684 14.3293 1.03749 16.0432 2.05888 16.8914L9.88373 23.4179C10.1024 23.5988 10.2656 23.8377 10.3544 24.1072C10.4432 24.3768 10.4541 24.6659 10.3858 24.9413L8.0487 34.1511C7.65053 35.7092 9.31245 36.9729 10.6454 36.1246L18.7646 30.9831C18.9923 30.8383 19.2565 30.7614 19.5263 30.7614C19.7961 30.7614 20.0603 30.8383 20.288 30.9831V30.9831Z" stroke="#F8D57E" stroke-width="3.0009" stroke-linecap="round" stroke-linejoin="round"/>
</svg>
