<svg width="49" height="49" viewBox="0 0 49 49" fill="none" xmlns="http://www.w3.org/2000/svg">
<path fill-rule="evenodd" clip-rule="evenodd" d="M0.033783 24.7436C0.033783 11.4664 10.7971 0.703125 24.0743 0.703125C37.3514 0.703125 48.1147 11.4664 48.1147 24.7436C48.1147 38.0208 37.3514 48.7841 24.0743 48.7841C10.7971 48.7841 0.033783 38.0208 0.033783 24.7436Z" fill="#E5EAF4"/>
<path d="M20.7657 23.5742C21.3122 23.6534 21.8195 23.2745 21.8988 22.7279C21.978 22.1813 21.5991 21.674 21.0525 21.5948L20.7657 23.5742ZM33 20.8975C33.5523 20.8975 34 20.4497 34 19.8975C34 19.3452 33.5523 18.8975 33 18.8975V20.8975ZM27.0909 13.7725C27.0909 13.2202 26.6432 12.7725 26.0909 12.7725C25.5386 12.7725 25.0909 13.2202 25.0909 13.7725H27.0909ZM25.0909 28.6475C25.0909 31.4903 22.8197 33.7725 20.0455 33.7725V35.7725C23.9488 35.7725 27.0909 32.5701 27.0909 28.6475H25.0909ZM20.0455 33.7725C17.2712 33.7725 15 31.4903 15 28.6475H13C13 32.5701 16.1421 35.7725 20.0455 35.7725V33.7725ZM15 28.6475C15 25.8046 17.2712 23.5225 20.0455 23.5225V21.5225C16.1421 21.5225 13 24.7248 13 28.6475H15ZM20.0455 23.5225C20.2905 23.5225 20.5309 23.5401 20.7657 23.5742L21.0525 21.5948C20.7231 21.5471 20.3868 21.5225 20.0455 21.5225V23.5225ZM33 18.8975C31.5903 18.8975 30.0872 18.3114 28.9393 17.3401C27.793 16.3701 27.0909 15.0982 27.0909 13.7725H25.0909C25.0909 15.8294 26.1739 17.62 27.6475 18.8669C29.1194 20.1124 31.0709 20.8975 33 20.8975V18.8975ZM25.0909 13.7725V28.6475H27.0909V13.7725H25.0909Z" fill="#1C1C1C"/>
</svg>
