<svg width="49" height="49" viewBox="0 0 49 49" fill="none" xmlns="http://www.w3.org/2000/svg">
<path fill-rule="evenodd" clip-rule="evenodd" d="M0.912369 24.7436C0.912369 11.4664 11.6757 0.703125 24.9528 0.703125C38.23 0.703125 48.9933 11.4664 48.9933 24.7436C48.9933 38.0208 38.23 48.7841 24.9528 48.7841C11.6757 48.7841 0.912369 38.0208 0.912369 24.7436Z" fill="#E5EAF4"/>
<path d="M25 35.3975C27.2621 35.3975 29.4314 35.174 31.4418 34.7642C33.9529 34.2523 35.2085 33.9964 36.3542 32.5232C37.5 31.0501 37.5 29.359 37.5 25.9769V23.568C37.5 20.1859 37.5 18.4948 36.3542 17.0217C35.2085 15.5486 33.9529 15.2926 31.4418 14.7807C29.4314 14.3709 27.2621 14.1475 25 14.1475C22.7379 14.1475 20.5686 14.3709 18.5582 14.7807C16.0471 15.2926 14.7915 15.5486 13.6458 17.0217C12.5 18.4948 12.5 20.1859 12.5 23.568V25.9769C12.5 29.359 12.5 31.0501 13.6458 32.5232C14.7915 33.9964 16.0471 34.2523 18.5582 34.7642C20.5686 35.174 22.7379 35.3975 25 35.3975Z" stroke="#1C1C1C" stroke-width="2"/>
<path d="M29.9527 25.1636C29.7672 25.9209 28.7801 26.4648 26.8061 27.5525C24.6591 28.7356 23.5855 29.3272 22.716 29.0993C22.4215 29.0221 22.1502 28.8864 21.9225 28.7022C21.25 28.1586 21.25 27.0299 21.25 24.7725C21.25 22.5151 21.25 21.3864 21.9225 20.8427C22.1502 20.6585 22.4215 20.5228 22.716 20.4456C23.5855 20.2177 24.6591 20.8093 26.8061 21.9924C28.7801 23.0802 29.7672 23.6241 29.9527 24.3814C30.0158 24.639 30.0158 24.9059 29.9527 25.1636Z" stroke="#1C1C1C" stroke-width="2" stroke-linejoin="round"/>
</svg>
